<svg width="24" height="23" viewBox="0 0 24 23" fill="none" xmlns="http://www.w3.org/2000/svg">
<g clip-path="url(#clip0_604_1525)">
<path d="M12 16.206C14.7614 16.206 17 14.1119 17 11.5288C17 8.94562 14.7614 6.85156 12 6.85156C9.23858 6.85156 7 8.94562 7 11.5288C7 14.1119 9.23858 16.206 12 16.206Z" stroke="#0A2640" stroke-width="2" stroke-linecap="round" stroke-linejoin="round"/>
<path d="M12 1.23901V3.1099" stroke="#0A2640" stroke-width="2" stroke-linecap="round" stroke-linejoin="round"/>
<path d="M12 19.9478V21.8186" stroke="#0A2640" stroke-width="2" stroke-linecap="round" stroke-linejoin="round"/>
<path d="M4.21997 4.25098L5.63997 5.57931" stroke="#0A2640" stroke-width="2" stroke-linecap="round" stroke-linejoin="round"/>
<path d="M18.3601 17.4783L19.7801 18.8066" stroke="#0A2640" stroke-width="2" stroke-linecap="round" stroke-linejoin="round"/>
<path d="M1 11.5288H3" stroke="#0A2640" stroke-width="2" stroke-linecap="round" stroke-linejoin="round"/>
<path d="M21 11.5288H23" stroke="#0A2640" stroke-width="2" stroke-linecap="round" stroke-linejoin="round"/>
<path d="M4.21997 18.8066L5.63997 17.4783" stroke="#0A2640" stroke-width="2" stroke-linecap="round" stroke-linejoin="round"/>
<path d="M18.3601 5.57931L19.7801 4.25098" stroke="#0A2640" stroke-width="2" stroke-linecap="round" stroke-linejoin="round"/>
</g>
<defs>
<clipPath id="clip0_604_1525">
<rect width="24" height="22.4506" fill="white" transform="translate(0 0.303467)"/>
</clipPath>
</defs>
</svg>
