<svg width="94" height="80" viewBox="0 0 94 80" fill="none" xmlns="http://www.w3.org/2000/svg">
<path d="M84.1 40C84.1 61.7893 65.4122 79.5 42.3 79.5C19.1878 79.5 0.5 61.7893 0.5 40C0.5 18.2107 19.1878 0.5 42.3 0.5C65.4122 0.5 84.1 18.2107 84.1 40Z" stroke="#C6AB69"/>
<path d="M16.1469 41.9492H12.2773L12.3017 39.0928H16.1469C17.1072 39.0928 17.9169 38.8771 18.5761 38.4458C19.2353 38.0063 19.7317 37.3675 20.0654 36.5293C20.4072 35.6911 20.5781 34.6779 20.5781 33.4897V32.623C20.5781 31.7116 20.4804 30.91 20.2851 30.2183C20.0979 29.5265 19.8172 28.9447 19.4428 28.4727C19.0685 28.0007 18.6087 27.6466 18.0634 27.4106C17.5182 27.1665 16.8915 27.0444 16.1835 27.0444H12.204V24.1758H16.1835C17.3717 24.1758 18.4581 24.3792 19.4428 24.7861C20.4356 25.1849 21.2942 25.7586 22.0185 26.5073C22.7428 27.256 23.3002 28.1512 23.6909 29.1929C24.0896 30.2264 24.289 31.3779 24.289 32.6475V33.4897C24.289 34.7511 24.0896 35.9027 23.6909 36.9443C23.3002 37.986 22.7428 38.8812 22.0185 39.6299C21.3023 40.3704 20.4438 40.9442 19.4428 41.3511C18.45 41.7498 17.3513 41.9492 16.1469 41.9492ZM14.3525 24.1758V41.9492H10.6904V24.1758H14.3525Z" fill="#C6AB69"/>
<path d="M48.767 36.8799H53.1078L59.4994 55.1489L65.891 36.8799H70.2318L61.2425 61.7627H57.7562L48.767 36.8799ZM46.4257 36.8799H50.7494L51.5355 54.6875V61.7627H46.4257V36.8799ZM68.2494 36.8799H72.5902V61.7627H67.4632V54.6875L68.2494 36.8799Z" fill="#C6AB69"/>
<line x1="34.9668" y1="8.13574" x2="34.9668" y2="71.8646" stroke="#C6AB69"/>
</svg>
